# xmcd
#
# Track frame offsets:
# 150
# 11976
# 23827
# 35799
# 48251
# 61461
# 83635
# 92422
# 104917
# 117748
# 131393
# 142167
# 154150
# 167263
# 180046
# 191126
#
# Disc length: 2680 seconds
#
#
# Revision: 2
# Processed by: cddbd v1.5.2PL0 Copyright (c) Steve Scherf et al.
# Submitted via: FreeRIP 2.945 
#
DISCID=d80a7610
DTITLE=The Platters - The Very Best Of
DYEAR=1995
DGENRE=
TTITLE0=Only You
TTITLE1=The Great Pretender
TTITLE2=Smoke Gets In Your Eyes
TTITLE3=My Prayer
TTITLE4=I'm Sorry
TTITLE5=Unchained Melody
TTITLE6=Sentimental Journey
TTITLE7=Twilight Time
TTITLE8=Remember When
TTITLE9=Alone In The Night
TTITLE10=Red Sails In The Sunset
TTITLE11=My Dream
TTITLE12=Enchanted
TTITLE13=So Many Tears
TTITLE14=(You've Got) The Magic Touch
TTITLE15=If You Need Me
EXTD=
EXTT0=
EXTT1=
EXTT2=
EXTT3=
EXTT4=
EXTT5=
EXTT6=
EXTT7=
EXTT8=
EXTT9=
EXTT10=
EXTT11=
EXTT12=
EXTT13=
EXTT14=
EXTT15=
PLAYORDER=
